<?xml version="1.0" standalone="no"?><!DOCTYPE svg PUBLIC "-//W3C//DTD SVG 1.1//EN" "http://www.w3.org/Graphics/SVG/1.1/DTD/svg11.dtd"><svg t="1581848599502" class="icon" viewBox="0 0 1024 1024" version="1.1" xmlns="http://www.w3.org/2000/svg" p-id="4911" xmlns:xlink="http://www.w3.org/1999/xlink" width="400" height="400"><defs><style type="text/css"></style></defs><path d="M140.815353 141.176603m53.320539 0l639.485219 0q53.320539 0 53.320539 53.320539l0 639.485219q0 53.320539-53.320539 53.320539l-639.485219 0q-53.320539 0-53.320539-53.320539l0-639.485219q0-53.320539 53.320539-53.320539Z" fill="#FFFFFF" p-id="4912"></path><path d="M833.693361 905.076413H194.135892a71.166302 71.166302 0 0 1-71.310802-71.094052V194.497142a71.166302 71.166302 0 0 1 71.021802-71.094052h639.557468a71.166302 71.166302 0 0 1 71.094052 71.094052v639.557469a71.166302 71.166302 0 0 1-70.805051 71.021802zM194.135892 158.950116a35.547026 35.547026 0 0 0-35.547026 35.547026v639.557469a35.547026 35.547026 0 0 0 35.547026 35.547026h639.557469a35.547026 35.547026 0 0 0 35.547026-35.547026V194.497142a35.547026 35.547026 0 0 0-35.547026-35.547026z" fill="#2A5082" p-id="4913"></path><path d="M744.825796 780.734072H282.931207a35.547026 35.547026 0 0 1-35.547026-35.547026V372.087773l124.414591-124.342342h373.099274a35.547026 35.547026 0 0 1 35.402526 35.547026v461.894589a35.547026 35.547026 0 0 1-35.474776 35.547026z" fill="#A3D4FF" p-id="4914"></path><path d="M744.825796 798.507585H282.931207a53.392789 53.392789 0 0 1-53.320539-53.320539V364.718267l134.818599-134.746349h380.468779a53.392789 53.392789 0 0 1 53.320539 53.320539v461.894589a53.320539 53.320539 0 0 1-53.392789 53.320539z m-479.668102-419.050307v365.729768a17.773513 17.773513 0 0 0 17.773513 17.773513h461.894589a17.773513 17.773513 0 0 0 17.773513-17.773513V283.292457a17.773513 17.773513 0 0 0-17.773513-17.773513H379.096028zM16.473012 176.723629h71.021802v35.547026H16.473012zM16.473012 283.292457h71.094052v35.547027H16.473012zM16.473012 389.861286h71.094052v35.547026H16.473012zM16.473012 496.502364h71.094052v35.547026H16.473012zM16.473012 603.071192h71.094052v35.547026H16.473012zM16.473012 709.64002h71.094052v35.547026H16.473012zM16.473012 816.281098h71.094052v35.547026H16.473012zM940.262189 176.723629h71.021802v35.547026h-71.021802zM940.262189 283.292457h71.094052v35.547027h-71.094052zM940.262189 389.861286h71.094052v35.547026h-71.094052zM940.262189 496.502364h71.094052v35.547026h-71.094052zM940.262189 603.071192h71.094052v35.547026h-71.094052zM940.262189 709.64002h71.094052v35.547026h-71.094052zM940.262189 816.281098h71.094052v35.547026h-71.094052zM815.919848 940.623439h35.547026v71.021802h-35.547026zM709.278769 940.623439h35.547027v71.021802h-35.547027zM602.709941 940.623439h35.547026v71.021802h-35.547026zM496.141113 940.623439h35.547026v71.021802h-35.547026zM389.500035 940.623439h35.547026v71.021802h-35.547026zM282.931207 940.623439h35.547026v71.021802h-35.547026zM176.362379 940.623439h35.547026v71.021802h-35.547026zM815.919848 16.834262h35.547026v71.021802h-35.547026zM709.278769 16.834262h35.547027v71.021802h-35.547027zM602.709941 16.834262h35.547026v71.021802h-35.547026zM496.141113 16.834262h35.547026v71.021802h-35.547026zM389.500035 16.834262h35.547026v71.021802h-35.547026zM282.931207 16.834262h35.547026v71.021802h-35.547026zM176.362379 16.834262h35.547026v71.021802h-35.547026z" fill="#2A5082" p-id="4915"></path><path d="M425.047061 496.502364h35.547026v35.547026h-35.547026zM496.141113 496.502364h35.547026v35.547026h-35.547026zM567.162915 496.502364h35.547026v35.547026H567.162915z" fill="#2A5082" p-id="4916"></path></svg>