<?xml version="1.0" standalone="no"?>
<!DOCTYPE svg PUBLIC "-//W3C//DTD SVG 20010904//EN"
 "http://www.w3.org/TR/2001/REC-SVG-20010904/DTD/svg10.dtd">
<svg version="1.0" xmlns="http://www.w3.org/2000/svg"
 width="700.000000pt" height="700.000000pt" viewBox="0 0 700.000000 700.000000"
 preserveAspectRatio="xMidYMid meet">
<metadata>
Created by potrace 1.11, written by Peter Selinger 2001-2013
</metadata>
<g transform="translate(0.000000,700.000000) scale(0.100000,-0.100000)"
fill="#000000" stroke="none">
<path d="M1207 6883 c-4 -3 -7 -114 -7 -245 l0 -238 125 0 125 0 0 245 0 245
-118 0 c-65 0 -122 -3 -125 -7z"/>
<path d="M1937 6884 c-4 -4 -7 -115 -7 -246 l0 -238 125 0 125 0 -2 243 -3
242 -116 3 c-63 1 -118 -1 -122 -4z"/>
<path d="M2667 6884 c-4 -4 -7 -115 -7 -246 l0 -238 125 0 125 0 -2 243 -3
242 -116 3 c-63 1 -118 -1 -122 -4z"/>
<path d="M3390 6645 l0 -245 125 0 125 0 -2 243 -3 242 -122 3 -123 3 0 -246z"/>
<path d="M4120 6645 l0 -245 120 0 120 0 0 245 0 245 -120 0 -120 0 0 -245z"/>
<path d="M4850 6645 l0 -245 120 0 120 0 0 245 0 245 -120 0 -120 0 0 -245z"/>
<path d="M5580 6645 l0 -245 120 0 120 0 0 245 0 245 -120 0 -120 0 0 -245z"/>
<path d="M1223 6145 c-132 -29 -269 -132 -326 -247 -61 -120 -57 39 -57 -2405
0 -1594 3 -2257 11 -2295 28 -134 130 -268 249 -328 128 -64 -35 -61 2442 -58
l2253 3 63 24 c111 41 220 136 270 236 55 111 52 -49 52 2410 0 2480 4 2298
-57 2420 -35 67 -135 164 -206 198 -124 60 7 57 -2412 56 -1829 0 -2231 -3
-2282 -14z m4603 -270 c30 -19 60 -49 79 -79 l30 -49 0 -2262 0 -2262 -30 -49
c-19 -30 -49 -60 -79 -79 l-49 -30 -2246 -3 c-1509 -2 -2258 0 -2281 7 -49 14
-119 76 -141 125 -18 39 -19 127 -19 2290 l0 2250 21 43 c24 49 81 101 130
119 27 10 535 12 2285 11 l2251 -2 49 -30z"/>
<path d="M2032 4967 l-462 -462 2 -1345 3 -1345 33 -67 c38 -78 100 -138 182
-177 l55 -26 1644 -3 c1816 -3 1699 -6 1803 60 58 36 99 87 136 165 l27 58 0
1660 0 1660 -32 67 c-40 84 -97 141 -181 181 l-67 32 -1340 3 -1340 2 -463
-463z m3118 198 c64 -33 60 85 60 -1680 0 -1765 4 -1647 -60 -1680 -26 -13
-220 -15 -1646 -15 l-1616 0 -34 34 -34 34 0 1278 0 1278 388 382 387 383
1263 1 c1110 0 1267 -2 1292 -15z"/>
<path d="M2900 3485 l0 -125 125 0 125 0 0 125 0 125 -125 0 -125 0 0 -125z"/>
<path d="M3390 3485 l0 -125 125 0 125 0 0 125 0 125 -125 0 -125 0 0 -125z"/>
<path d="M3877 3603 c-4 -3 -7 -60 -7 -125 l0 -118 125 0 125 0 0 125 0 125
-118 0 c-65 0 -122 -3 -125 -7z"/>
<path d="M110 5670 l0 -120 245 0 245 0 0 120 0 120 -245 0 -245 0 0 -120z"/>
<path d="M6430 5670 l0 -120 240 0 240 0 0 120 0 120 -240 0 -240 0 0 -120z"/>
<path d="M110 4940 l0 -120 245 0 245 0 0 120 0 120 -245 0 -245 0 0 -120z"/>
<path d="M6430 4940 l0 -120 240 0 240 0 0 120 0 120 -240 0 -240 0 0 -120z"/>
<path d="M117 4333 c-4 -3 -7 -60 -7 -125 l0 -118 245 0 245 0 0 125 0 125
-238 0 c-131 0 -242 -3 -245 -7z"/>
<path d="M6430 4215 l0 -125 240 0 240 0 0 125 0 125 -240 0 -240 0 0 -125z"/>
<path d="M110 3485 l0 -125 245 0 245 0 0 125 0 125 -245 0 -245 0 0 -125z"/>
<path d="M6430 3485 l0 -125 240 0 240 0 0 125 0 125 -240 0 -240 0 0 -125z"/>
<path d="M112 2758 l3 -123 243 -3 242 -2 0 125 0 125 -245 0 -246 0 3 -122z"/>
<path d="M6430 2755 l0 -125 240 0 240 0 0 125 0 125 -240 0 -240 0 0 -125z"/>
<path d="M110 2030 l0 -120 245 0 245 0 0 120 0 120 -245 0 -245 0 0 -120z"/>
<path d="M6430 2030 l0 -120 240 0 240 0 0 120 0 120 -240 0 -240 0 0 -120z"/>
<path d="M110 1300 l0 -120 245 0 245 0 0 120 0 120 -245 0 -245 0 0 -120z"/>
<path d="M6430 1300 l0 -120 240 0 240 0 0 120 0 120 -240 0 -240 0 0 -120z"/>
<path d="M1202 328 l3 -243 123 -3 122 -3 0 246 0 245 -125 0 -125 0 2 -242z"/>
<path d="M1932 328 l3 -243 120 0 120 0 3 243 2 242 -125 0 -125 0 2 -242z"/>
<path d="M2662 328 l3 -243 120 0 120 0 3 243 2 242 -125 0 -125 0 2 -242z"/>
<path d="M3390 325 l0 -246 123 3 122 3 3 243 2 242 -125 0 -125 0 0 -245z"/>
<path d="M4120 325 l0 -245 120 0 120 0 0 245 0 245 -120 0 -120 0 0 -245z"/>
<path d="M4850 325 l0 -245 120 0 120 0 0 245 0 245 -120 0 -120 0 0 -245z"/>
<path d="M5580 325 l0 -245 120 0 120 0 0 245 0 245 -120 0 -120 0 0 -245z"/>
</g>
</svg>
