<?xml version="1.0" encoding="utf-8"?>
<!DOCTYPE svg PUBLIC "-//W3C//DTD SVG 1.1//EN" "http://www.w3.org/Graphics/SVG/1.1/DTD/svg11.dtd">
<svg version="1.1" id="Layer_1" xmlns="http://www.w3.org/2000/svg" xmlns:xlink="http://www.w3.org/1999/xlink" x="0px" y="0px"
	 width="144px" height="144px" viewBox="0 0 144 144" enable-background="new 0 0 144 144" xml:space="preserve">
<g id="XMLID_1_">
	<g>
		<path fill="#EC008C" d="M111.982,57.462c18.103,4.474,31.518,20.82,31.518,40.296c0,22.929-18.585,41.514-41.509,41.514
			c-11.801,0-22.456-4.916-29.989-12.816c7.151-7.462,11.525-17.552,11.525-28.697c0-3.887-0.533-7.645-1.525-11.208
			C96.486,82.967,107.977,71.772,111.982,57.462z"/>
		<path fill="#2E3192" d="M101.991,56.242c3.441,0,6.795,0.419,9.991,1.22c-4.006,14.31-15.496,25.504-29.98,29.088
			c-1.862-6.658-5.34-12.625-10-17.484C79.535,61.166,90.19,56.242,101.991,56.242z"/>
		<path fill="#ED1C24" d="M72.002,126.456c-7.151-7.462-11.533-17.552-11.533-28.697c0-3.887,0.539-7.645,1.54-11.208
			c3.196,0.798,6.549,1.214,9.994,1.214c3.441,0,6.797-0.416,10-1.214c0.992,3.563,1.525,7.321,1.525,11.208
			C83.527,108.904,79.153,118.994,72.002,126.456z"/>
		<path fill="#363639" d="M62.009,86.551c1.859-6.658,5.335-12.625,9.994-17.484c4.659,4.858,8.137,10.826,10,17.484
			c-3.202,0.798-6.558,1.214-10,1.214C68.558,87.765,65.205,87.349,62.009,86.551z"/>
		<path fill="#00AEEF" d="M32.02,57.462c-0.995-3.573-1.534-7.325-1.534-11.214c0-22.927,18.59-41.52,41.517-41.52
			c22.926,0,41.522,18.593,41.522,41.52c0,3.889-0.541,7.641-1.542,11.214c-3.196-0.801-6.55-1.22-9.991-1.22
			c-11.801,0-22.456,4.924-29.989,12.825c-7.533-7.901-18.19-12.825-29.983-12.825C38.572,56.242,35.225,56.661,32.02,57.462z"/>
		<path fill="#00A651" d="M42.019,56.242c11.793,0,22.451,4.924,29.983,12.825c-4.659,4.858-8.134,10.826-9.994,17.484
			C47.525,82.967,36.02,71.772,32.02,57.462C35.225,56.661,38.572,56.242,42.019,56.242z"/>
		<path fill="#FFF200" d="M0.5,97.759c0-19.477,13.42-35.823,31.52-40.296c4,14.31,15.505,25.504,29.989,29.088
			c-1,3.563-1.54,7.321-1.54,11.208c0,11.146,4.382,21.235,11.533,28.697c-7.533,7.9-18.19,12.816-29.983,12.816
			C19.09,139.272,0.5,120.688,0.5,97.759z"/>
	</g>
	<g>
	</g>
</g>
</svg>
